PathFileType	4	(X/Y/Z)	c:/Users/goper/Files/vsCode/490R/osim_files/A06/A06_SSWS_02.trc
DataRate	CameraRate	NumFrames	NumMarkers	Units                	OrigDataRate	OrigDataStartFrame	OrigNumFrames
120.00	120.00	5	36	mm	120.0	560	1118
                Frame#	Time	LPSIS			LASIS			LTH1			LTH2			LTH3			LTH4			LLFE			LMFE			LSH1			LSH2			LSH3			LSH4			LLMAL			LMMAL			LCAL			LMTP5			LTOE			LMTP1			RPSIS			RASIS			RTH1			RTH2			RTH3			RTH4			RLFE			RMFE			RSH1			RSH2			RSH3			RSH4			RLMAL			RMMAL			RCAL			RMTP1			RTOE			RMTP5		
		X1	Y1	Z1	X2	Y2	Z2	X3	Y3	Z3	X4	Y4	Z4	X5	Y5	Z5	X6	Y6	Z6	X7	Y7	Z7	X8	Y8	Z8	X9	Y9	Z9	X10	Y10	Z10	X11	Y11	Z11	X12	Y12	Z12	X13	Y13	Z13	X14	Y14	Z14	X15	Y15	Z15	X16	Y16	Z16	X17	Y17	Z17	X18	Y18	Z18	X19	Y19	Z19	X20	Y20	Z20	X21	Y21	Z21	X22	Y22	Z22	X23	Y23	Z23	X24	Y24	Z24	X25	Y25	Z25	X26	Y26	Z26	X27	Y27	Z27	X28	Y28	Z28	X29	Y29	Z29	X30	Y30	Z30	X31	Y31	Z31	X32	Y32	Z32	X33	Y33	Z33	X34	Y34	Z34	X35	Y35	Z35	X36	Y36	Z36

560	4.65833	-659.01923	986.96271	332.27029	-856.80804	933.33905	381.10190	-718.26819	585.33252	415.73764	-717.90869	542.28925	409.28931	-780.20282	574.28601	396.94476	-767.41479	533.16260	393.99222	-720.40491	466.99329	392.16595	-713.22211	461.73483	280.92923	-640.51740	386.66937	407.18716	-638.12769	340.32498	412.44913	-701.45959	375.92044	398.24368	-691.64142	334.55325	402.46756	-591.00500	89.95595	367.93784	-609.54437	103.89741	283.33435	-522.52313	83.58277	317.65045	-703.38287	39.86015	383.67993	-743.36688	58.97815	326.94916	-718.74152	53.50651	288.75336	-645.85101	1006.07910	202.35080	-813.06738	981.39343	131.07324	-810.80402	586.70795	91.52185	-832.37225	549.41949	91.37766	-868.28931	610.25354	101.32704	-882.30231	568.06915	97.12769	-896.79175	451.68317	116.85128	-896.57758	450.96887	205.46017	-924.12543	297.08997	129.00714	-939.59515	251.68097	130.80177	-981.83740	311.00052	141.08347	-990.72162	264.28558	136.03940	-980.69397	118.54098	120.08298	-990.85052	126.43625	204.87520	-934.21838	79.09349	168.74506	-1131.98999	127.83293	197.50621	-1142.70923	143.32294	157.05710	-1121.49658	119.42378	108.58459
561	4.66667	-667.32672	984.83038	331.98352	-865.26013	931.57434	380.80057	-724.19043	584.36182	415.57715	-723.16046	540.76788	409.26334	-785.95349	572.66681	396.27850	-770.41650	529.88525	392.76523	-724.84979	466.16235	391.75061	-716.67352	461.22601	280.50626	-643.95593	386.54749	407.13266	-641.16522	340.25653	412.37366	-704.76794	375.16348	397.91296	-694.49786	333.92844	402.13605	-591.32684	90.20778	367.89331	-609.72614	103.98794	283.22830	-522.71838	83.90099	317.67981	-703.46277	39.81496	383.69537	-743.44373	58.72272	326.85980	-718.80743	53.57346	288.84512	-654.52631	1003.64258	201.91924	-820.74457	978.86572	130.40997	-821.64435	585.29883	91.41592	-843.61090	548.27081	91.22835	-879.00549	609.49493	100.80907	-893.66180	567.32153	96.65536	-909.31903	451.31140	116.62939	-909.68500	450.94019	205.19490	-939.18823	297.32495	129.10242	-955.34546	252.14539	130.96106	-996.81549	312.13617	140.67685	-1006.46582	265.45987	135.80261	-998.91150	119.26630	120.71961	-1009.26300	127.98779	205.05977	-953.08258	79.70493	169.46530	-1150.28101	131.63530	196.65787	-1160.46082	147.20078	156.15993	-1139.35132	122.83498	107.93581
562	4.67500	-675.79865	982.77631	331.55978	-873.79120	929.82788	380.26511	-730.19586	583.37115	415.40466	-728.77130	539.83179	408.93240	-791.65106	571.05481	395.57144	-775.76660	528.56049	392.00879	-729.15753	465.25098	391.38968	-720.11383	460.75180	279.96057	-647.49750	386.51199	406.97073	-644.19342	340.28647	412.25311	-707.96484	374.46036	397.65396	-697.40588	333.40164	401.87943	-591.63757	90.48672	367.88049	-610.13239	103.99380	283.19305	-522.98547	84.23085	317.74985	-703.58209	39.74677	383.69400	-743.54077	58.49516	326.82242	-718.95123	53.39159	288.84531	-662.60925	1001.37744	201.49330	-828.85681	976.57886	129.83086	-832.45404	583.85333	91.34764	-854.85333	547.01642	91.09129	-889.57867	608.62073	100.18558	-904.41583	566.73444	96.11328	-921.74445	450.92645	116.39136	-923.58997	451.01047	205.15810	-954.00024	297.33218	129.21600	-970.80621	252.41306	131.10600	-1011.38312	313.08490	140.29776	-1021.86682	266.47467	135.72617	-1016.00696	120.26842	120.88352	-1026.97876	129.42284	205.32797	-972.47815	79.25887	169.55122	-1167.96997	134.80850	195.58347	-1177.21143	150.47881	154.96765	-1156.41248	125.70657	107.15491
563	4.68333	-684.26147	980.69482	331.25507	-882.47443	927.99115	379.55322	-736.05359	582.47827	415.02005	-734.16718	538.94910	408.44812	-797.17572	569.38300	395.12457	-781.11914	527.23517	391.42245	-733.42786	464.31570	390.97791	-724.00269	460.27341	279.49249	-650.97620	386.48636	406.87061	-647.29108	340.29028	412.11243	-711.47620	373.88486	397.30249	-700.43378	332.88568	401.65173	-592.04327	90.80196	367.89444	-610.29144	104.35509	283.15723	-523.26178	84.60442	317.85919	-703.73236	39.64612	383.78040	-743.63165	58.23822	326.79950	-719.07977	53.24492	288.87354	-670.72205	998.96252	201.16222	-837.07837	974.36127	129.07625	-843.07159	582.48053	91.21814	-866.09509	545.71198	91.04403	-900.22467	607.63983	99.55131	-915.48389	565.78949	95.57921	-934.13733	450.31680	116.11674	-937.47717	451.82275	205.65451	-968.38135	297.25949	129.37117	-985.80884	252.51134	131.26047	-1026.21497	314.60056	138.83606	-1036.73657	267.09171	135.42886	-1032.68286	120.82891	121.28531	-1044.13440	130.57834	205.47139	-989.08862	80.28600	171.15810	-1184.90747	137.65932	194.58145	-1193.76697	153.61969	153.67517	-1172.74146	128.05363	106.32861
564	4.69167	-692.90869	978.54578	331.00064	-891.28967	926.05145	378.68735	-742.00153	581.58557	414.72467	-739.66559	538.01306	408.04092	-803.37726	568.17444	394.75449	-786.52692	525.98975	390.93997	-737.96490	463.50043	390.63168	-728.06525	459.79547	278.98453	-654.87958	386.48813	406.63843	-650.59851	340.37390	411.92230	-715.15540	373.22983	396.95316	-703.72736	332.40210	401.32806	-592.64368	91.20544	368.00238	-610.63586	104.66236	283.12283	-523.51990	85.05318	318.08179	-703.85657	39.26550	383.55023	-743.77679	57.92407	326.78598	-719.23376	53.08538	288.90710	-679.17987	996.45844	200.86958	-845.32477	972.32776	128.13400	-853.94171	580.85474	91.07635	-877.28400	544.28918	90.90972	-911.02386	606.59082	98.96717	-926.36316	564.65936	95.04704	-946.38232	449.53918	115.87694	-949.96088	451.36972	205.53444	-982.44965	296.98752	129.40570	-1000.66705	252.44287	131.57025	-1040.12988	314.92999	138.45377	-1051.09753	267.57281	135.13303	-1048.40479	121.33456	121.45673	-1060.52295	131.43500	205.62178	-1006.00757	80.22884	171.94307	-1201.19568	140.00296	193.68332	-1209.32947	155.66530	152.25586	-1188.41211	130.02425	105.47871
